<?xml version="1.0" encoding="utf-8"?>
<!-- Generator: Adobe Illustrator 16.0.0, SVG Export Plug-In . SVG Version: 6.00 Build 0)  -->
<!DOCTYPE svg PUBLIC "-//W3C//DTD SVG 1.1//EN" "http://www.w3.org/Graphics/SVG/1.1/DTD/svg11.dtd">
<svg version="1.1" id="Layer_1" xmlns="http://www.w3.org/2000/svg" xmlns:xlink="http://www.w3.org/1999/xlink" x="0px" y="0px"
	 width="16px" height="16px" viewBox="0 0 16 16" enable-background="new 0 0 16 16" xml:space="preserve">
<g transform="translate(0.000000,700.000000) scale(0.100000,-0.100000)">
	<path d="M49.492,6994.766c-8.594-4.971-12.695-7.334-13.584-7.842c-0.488-0.264-2.246-1.299-3.916-2.266
		c-1.66-0.967-3.496-2.031-4.102-2.363c-1.689-0.947-1.924-1.113-1.924-1.328c0-0.244,1.494-2.9,6.562-11.631
		c1.924-3.311,3.76-6.523,4.102-7.119c0.723-1.279,2.773-4.785,3.086-5.312c0.391-0.605,2.412-4.15,3.184-5.547
		c0.264-0.459,0.674-1.162,0.918-1.572c0.244-0.391,0.654-1.113,0.918-1.572s1.836-3.203,3.525-6.123
		c1.66-2.9,3.037-5.361,3.037-5.459s-11.465-0.166-25.459-0.166c-14.014,0-25.557-0.078-25.654-0.166
		c-0.088-0.098-0.166-7.51-0.166-16.465L0,6903.574h2.07c1.133,0,12.744,0,25.771,0l23.75-0.029l-0.391-0.576
		c-0.215-0.342-1.543-2.578-2.939-5.02c-1.396-2.412-2.627-4.561-2.754-4.756c-0.195-0.312-9.092-15.732-10.371-17.979
		c-0.342-0.625-3.936-6.875-8.232-14.287l-1.133-1.973l0.889-0.537c0.488-0.283,1.357-0.791,1.953-1.133
		c0.605-0.332,4.395-2.529,8.447-4.873s7.969-4.58,8.691-4.99s2.842-1.641,4.707-2.734c1.855-1.084,3.477-1.973,3.594-2.002
		c0.195-0.049,1.299,1.543,1.758,2.49c0.176,0.332,1.094,1.924,5.693,9.893c1.191,2.051,2.441,4.219,2.783,4.824
		c0.332,0.605,5.186,9.023,10.781,18.701c5.605,9.707,11.221,19.404,12.48,21.602c1.25,2.197,4.316,7.48,6.807,11.777
		c2.461,4.268,4.482,7.891,4.482,8.037c0,0.186-11.504,20.342-12.061,21.084c-0.098,0.146-0.508,0.85-0.898,1.572
		c-0.41,0.723-2.1,3.672-3.74,6.514c-1.66,2.852-5.664,9.795-8.926,15.449c-3.262,5.645-6.152,10.635-6.445,11.094
		c-0.264,0.459-0.576,1.016-0.674,1.211s-0.625,1.133-1.162,2.051c-0.547,0.938-1.279,2.168-1.611,2.773
		c-0.342,0.605-1.377,2.393-2.295,3.984c-0.938,1.592-1.953,3.379-2.295,3.984c-1.592,2.822-4.15,7.139-4.385,7.402
		C54.15,6997.344,52.939,6996.748,49.492,6994.766z"/>
	<path d="M98.242,6984.482l-13.301-23.115l24.844-41.387l-24.658-41.66l20.596-35.752l27.461,15.752l0.889,0.703l-25.508,44.355
		l51.279,0.293l-0.02,32.627l-51.23,0.312l25.137,43.506l0.391,0.986l-28.33,16.338L98.242,6984.482L98.242,6984.482z"/>
</g>
</svg>
